{
	"asset":{
		"generator":"Khronos glTF Blender I/O v3.6.27",
		"version":"2.0"
	},
	"scene":0,
	"scenes":[
		{
			"name":"Scene",
			"nodes":[
				0,
				1,
				2,
				3,
				4,
				5,
				6
			]
		}
	],
	"nodes":[
		{
			"mesh":0,
			"name":"Plane.001",
			"rotation":[
				0,
				0,
				-0.7071068286895752,
				0.7071068286895752
			],
			"translation":[
				0.19999998807907104,
				0,
				0
			]
		},
		{
			"mesh":1,
			"name":"Plane.002",
			"rotation":[
				0,
				0,
				-0.7071068286895752,
				0.7071068286895752
			]
		},
		{
			"mesh":2,
			"name":"Plane.003",
			"rotation":[
				0,
				0,
				-0.7071068286895752,
				0.7071068286895752
			]
		},
		{
			"mesh":3,
			"name":"Plane.004",
			"rotation":[
				0,
				0,
				-0.7071068286895752,
				0.7071068286895752
			]
		},
		{
			"mesh":4,
			"name":"Plane.005",
			"rotation":[
				0,
				0,
				-0.7071068286895752,
				0.7071068286895752
			]
		},
		{
			"mesh":5,
			"name":"Plane.006",
			"rotation":[
				0,
				0,
				-0.7071068286895752,
				0.7071068286895752
			]
		},
		{
			"mesh":6,
			"name":"Plane"
		}
	],
	"materials":[
		{
			"doubleSided":true,
			"emissiveFactor":[
				1,
				1,
				1
			],
			"emissiveTexture":{
				"index":0
			},
			"name":"Material.001",
			"pbrMetallicRoughness":{
				"baseColorTexture":{
					"index":1
				},
				"metallicFactor":0,
				"roughnessFactor":0.5
			}
		},
		{
			"doubleSided":true,
			"name":"Material.002",
			"pbrMetallicRoughness":{
				"baseColorFactor":[
					0.800000011920929,
					0.800000011920929,
					0.800000011920929,
					1
				],
				"metallicFactor":0,
				"roughnessFactor":0.5
			}
		}
	],
	"meshes":[
		{
			"name":"Plane.014",
			"primitives":[
				{
					"attributes":{
						"POSITION":0,
						"NORMAL":1,
						"TEXCOORD_0":2
					},
					"indices":3,
					"material":0
				}
			]
		},
		{
			"name":"Plane.001",
			"primitives":[
				{
					"attributes":{
						"POSITION":4,
						"NORMAL":5,
						"TEXCOORD_0":6
					},
					"indices":3,
					"material":0
				}
			]
		},
		{
			"name":"Plane.002",
			"primitives":[
				{
					"attributes":{
						"POSITION":7,
						"NORMAL":8,
						"TEXCOORD_0":9
					},
					"indices":3,
					"material":0
				}
			]
		},
		{
			"name":"Plane.003",
			"primitives":[
				{
					"attributes":{
						"POSITION":10,
						"NORMAL":11,
						"TEXCOORD_0":12
					},
					"indices":3,
					"material":0
				}
			]
		},
		{
			"name":"Plane.004",
			"primitives":[
				{
					"attributes":{
						"POSITION":13,
						"NORMAL":14,
						"TEXCOORD_0":15
					},
					"indices":3,
					"material":0
				}
			]
		},
		{
			"name":"Plane.005",
			"primitives":[
				{
					"attributes":{
						"POSITION":16,
						"NORMAL":17,
						"TEXCOORD_0":18
					},
					"indices":3,
					"material":0
				}
			]
		},
		{
			"name":"Plane",
			"primitives":[
				{
					"attributes":{
						"POSITION":19,
						"NORMAL":20,
						"TEXCOORD_0":21
					},
					"indices":22,
					"material":1
				}
			]
		}
	],
	"textures":[
		{
			"sampler":0,
			"source":0
		},
		{
			"sampler":0,
			"source":0
		}
	],
	"images":[
		{
			"mimeType":"image/jpeg",
			"name":"istockphoto-1044013648-170667a",
			"uri":"istockphoto-1044013648-170667a.jpg"
		}
	],
	"accessors":[
		{
			"bufferView":0,
			"componentType":5126,
			"count":109,
			"max":[
				1.354773759841919,
				1.0293044283571362e-07,
				2.140519380569458
			],
			"min":[
				-1.3656402826309204,
				-0.049999967217445374,
				0.1528744101524353
			],
			"type":"VEC3"
		},
		{
			"bufferView":1,
			"componentType":5126,
			"count":109,
			"type":"VEC3"
		},
		{
			"bufferView":2,
			"componentType":5126,
			"count":109,
			"type":"VEC2"
		},
		{
			"bufferView":3,
			"componentType":5123,
			"count":315,
			"type":"SCALAR"
		},
		{
			"bufferView":4,
			"componentType":5126,
			"count":109,
			"max":[
				1.354773759841919,
				1.0293044283571362e-07,
				2.140519380569458
			],
			"min":[
				-1.3656402826309204,
				-0.049999967217445374,
				0.1528744101524353
			],
			"type":"VEC3"
		},
		{
			"bufferView":5,
			"componentType":5126,
			"count":109,
			"type":"VEC3"
		},
		{
			"bufferView":6,
			"componentType":5126,
			"count":109,
			"type":"VEC2"
		},
		{
			"bufferView":7,
			"componentType":5126,
			"count":109,
			"max":[
				1.354773759841919,
				1.0293044283571362e-07,
				2.140519380569458
			],
			"min":[
				-1.3656402826309204,
				-0.049999967217445374,
				0.1528744101524353
			],
			"type":"VEC3"
		},
		{
			"bufferView":8,
			"componentType":5126,
			"count":109,
			"type":"VEC3"
		},
		{
			"bufferView":9,
			"componentType":5126,
			"count":109,
			"type":"VEC2"
		},
		{
			"bufferView":10,
			"componentType":5126,
			"count":109,
			"max":[
				1.354773759841919,
				1.0293044283571362e-07,
				2.140519380569458
			],
			"min":[
				-1.3656402826309204,
				-0.049999967217445374,
				0.1528744101524353
			],
			"type":"VEC3"
		},
		{
			"bufferView":11,
			"componentType":5126,
			"count":109,
			"type":"VEC3"
		},
		{
			"bufferView":12,
			"componentType":5126,
			"count":109,
			"type":"VEC2"
		},
		{
			"bufferView":13,
			"componentType":5126,
			"count":109,
			"max":[
				1.354773759841919,
				1.0293044283571362e-07,
				2.140519380569458
			],
			"min":[
				-1.3656402826309204,
				-0.049999967217445374,
				0.1528744101524353
			],
			"type":"VEC3"
		},
		{
			"bufferView":14,
			"componentType":5126,
			"count":109,
			"type":"VEC3"
		},
		{
			"bufferView":15,
			"componentType":5126,
			"count":109,
			"type":"VEC2"
		},
		{
			"bufferView":16,
			"componentType":5126,
			"count":109,
			"max":[
				1.354773759841919,
				1.0293044283571362e-07,
				2.140519380569458
			],
			"min":[
				-1.3656402826309204,
				-0.049999967217445374,
				0.1528744101524353
			],
			"type":"VEC3"
		},
		{
			"bufferView":17,
			"componentType":5126,
			"count":109,
			"type":"VEC3"
		},
		{
			"bufferView":18,
			"componentType":5126,
			"count":109,
			"type":"VEC2"
		},
		{
			"bufferView":19,
			"componentType":5126,
			"count":4,
			"max":[
				1,
				0,
				1
			],
			"min":[
				-1,
				0,
				-1
			],
			"type":"VEC3"
		},
		{
			"bufferView":20,
			"componentType":5126,
			"count":4,
			"type":"VEC3"
		},
		{
			"bufferView":21,
			"componentType":5126,
			"count":4,
			"type":"VEC2"
		},
		{
			"bufferView":22,
			"componentType":5123,
			"count":6,
			"type":"SCALAR"
		}
	],
	"bufferViews":[
		{
			"buffer":0,
			"byteLength":1308,
			"byteOffset":0,
			"target":34962
		},
		{
			"buffer":0,
			"byteLength":1308,
			"byteOffset":1308,
			"target":34962
		},
		{
			"buffer":0,
			"byteLength":872,
			"byteOffset":2616,
			"target":34962
		},
		{
			"buffer":0,
			"byteLength":630,
			"byteOffset":3488,
			"target":34963
		},
		{
			"buffer":0,
			"byteLength":1308,
			"byteOffset":4120,
			"target":34962
		},
		{
			"buffer":0,
			"byteLength":1308,
			"byteOffset":5428,
			"target":34962
		},
		{
			"buffer":0,
			"byteLength":872,
			"byteOffset":6736,
			"target":34962
		},
		{
			"buffer":0,
			"byteLength":1308,
			"byteOffset":7608,
			"target":34962
		},
		{
			"buffer":0,
			"byteLength":1308,
			"byteOffset":8916,
			"target":34962
		},
		{
			"buffer":0,
			"byteLength":872,
			"byteOffset":10224,
			"target":34962
		},
		{
			"buffer":0,
			"byteLength":1308,
			"byteOffset":11096,
			"target":34962
		},
		{
			"buffer":0,
			"byteLength":1308,
			"byteOffset":12404,
			"target":34962
		},
		{
			"buffer":0,
			"byteLength":872,
			"byteOffset":13712,
			"target":34962
		},
		{
			"buffer":0,
			"byteLength":1308,
			"byteOffset":14584,
			"target":34962
		},
		{
			"buffer":0,
			"byteLength":1308,
			"byteOffset":15892,
			"target":34962
		},
		{
			"buffer":0,
			"byteLength":872,
			"byteOffset":17200,
			"target":34962
		},
		{
			"buffer":0,
			"byteLength":1308,
			"byteOffset":18072,
			"target":34962
		},
		{
			"buffer":0,
			"byteLength":1308,
			"byteOffset":19380,
			"target":34962
		},
		{
			"buffer":0,
			"byteLength":872,
			"byteOffset":20688,
			"target":34962
		},
		{
			"buffer":0,
			"byteLength":48,
			"byteOffset":21560,
			"target":34962
		},
		{
			"buffer":0,
			"byteLength":48,
			"byteOffset":21608,
			"target":34962
		},
		{
			"buffer":0,
			"byteLength":32,
			"byteOffset":21656,
			"target":34962
		},
		{
			"buffer":0,
			"byteLength":12,
			"byteOffset":21688,
			"target":34963
		}
	],
	"samplers":[
		{
			"magFilter":9729,
			"minFilter":9987
		}
	],
	"buffers":[
		{
			"byteLength":21700,
			"uri":"butterfly.bin"
		}
	]
}
